<svg xmlns="http://www.w3.org/2000/svg" width="200px" height="100px" viewBox="0 50 98.751 1" style="overflow: visible;">
    <g fill="red">
        <g>
            <circle cx="22.1" cy="53.8" r="6.3"  stroke="red" stroke-width="2.2" fill="none" />
            <circle cx="22.1" cy="53.8" r="3"  fill="red"/>
            <line x1="16" y1="53.8" x2="28" y2="53.8" stroke="red" stroke-width="1.4" />
            <line x1="22" y1="47" x2="22" y2="60" stroke="red" stroke-width="1.4" />
            <line x1="17.5" y1="49" x2="26" y2="58" stroke="red" stroke-width="1.4" />
            <line x1="27" y1="49" x2="18" y2="58" stroke="red" stroke-width="1.4" />
            <animateTransform
                attributeName="transform"
                type="rotate"
                from="0 22.1 53.8"
                to="-360 22.1 53.8"
                dur="4s"
                repeatCount="1"
                keyTimes="0; 1"
                keySplines="0.50 1 0.75 1"
                calcMode="spline"
            />
        </g>
        <animateTransform
            attributeName="transform"
            type="translate"
            from="800 0"
            to="0 0"
            dur="4s"
            repeatCount="1"
            keyTimes="0; 1"
            keySplines="0.20 1 0.35 1"
            calcMode="spline"
        />
        <path d="M78.029,53.801c0-3.049,1.638-5.717,4.072-7.19l-16.177-7.166H55.775c-0.604,0-1.094,0.49-1.094,1.095v1.438
			c0,0.604,0.489,1.095,1.094,1.095h0.72v0.997h-1.841c-0.579,0-1.096,0.371-1.277,0.921L53.23,45.43
			c-3.351-0.271-4.945,2.294-6.62,2.294l-1.131-1.361c-0.674-0.813-1.706-1.241-2.758-1.144c-0.32,0.03-0.661,0.094-1.008,0.211
			l-0.635,2.294c0,0-5.759-0.335-13.245-0.066c1.648,1.537,2.687,3.72,2.687,6.146c0,0.24,0.039,5.32,0.039,5.32h49.383
			c-0.976-1.188-1.637-2.648-1.84-4.266C78.055,54.485,78.029,54.135,78.029,53.801z"/>
        <path d="M13.695,53.801c0-1.928,0.659-3.699,1.753-5.12C9.664,49.487,4.044,50.83,0,53.047c0,1.176,5.168,0.019,5.168,2.448H1.181
			c-0.402,0-0.728,0.325-0.728,0.728v2.172c0,0.402,0.325,0.729,0.728,0.729h9.969c0.403,0,0.729-0.326,0.729-0.729v-3.354h1.922
			c-0.009-0.062-0.024-0.121-0.032-0.185C13.72,54.485,13.695,54.135,13.695,53.801z"/>
        <path d="M96.938,38.084H86.284c-1.003,0-1.815,0.812-1.815,1.814v2.376c0,0.48,0.191,0.942,0.531,1.282l1.855,1.854
			c4.446,0.218,8,3.893,8,8.391c0,0.111-0.012,0.224-0.017,0.334h3.912V39.899C98.752,38.896,97.939,38.084,96.938,38.084z"/>
        <g>
            <circle cx="86.4" cy="53.8" r="6.3"  stroke="red" stroke-width="2.2" fill="none" />
            <circle cx="86.4" cy="53.8" r="3"  fill="red"/>
            <line x1="80.3" y1="53.8" x2="92.3" y2="53.8" stroke="red" stroke-width="1.4" />
            <line x1="86.3" y1="47" x2="86.3" y2="60" stroke="red" stroke-width="1.4" />
            <line x1="81.8" y1="49" x2="90.3" y2="58" stroke="red" stroke-width="1.4" />
            <line x1="91.3" y1="49" x2="82.3" y2="58" stroke="red" stroke-width="1.4" />
            <animateTransform
                attributeName="transform"
                type="rotate"
                from="0 86.4 53.8"
                to="-360 86.4 53.8"
                dur="4s"
                repeatCount="1"
                keyTimes="0; 1"
                keySplines="0.50 1 0.75 1"
                calcMode="spline"
            />

        </g>
    </g>
</svg>
